<?xml version="1.0" encoding="UTF-8"?>
<svg width="200px" height="200px" viewBox="0 0 200 200" version="1.1" xmlns="http://www.w3.org/2000/svg" xmlns:xlink="http://www.w3.org/1999/xlink">
    <title>VDID_Logo_neg</title>
    <defs>
        <mask id="vdidTextMask">
            <rect x="0" y="0" width="100.043262" height="100.053407" fill="white"></rect>
            <path d="M13.3584793,59.8292332 L19.4719338,41.8980402 L14.5657582,41.8980402 L10.5586199,55.9758249 L10.5072464,55.9758249 L6.52579494,41.8980402 L1.43981181,41.8980402 L7.45051914,59.8292332 L13.3584793,59.8292332 Z M27.8552888,59.8292332 C33.9687432,59.8292332 38.4639303,57.4914988 38.4639303,50.7865685 C38.4639303,43.8504337 34.0971772,41.8980402 27.8552888,41.8980402 L21.3308458,41.8980402 L21.3308458,59.8292332 L27.8552888,59.8292332 Z M27.9580359,56.2840976 L26.1085875,56.2840976 L26.1085875,45.4431757 L27.9580359,45.4431757 C31.4514385,45.4431757 33.5320679,47.2928117 33.5320679,50.8636367 C33.5320679,54.4344616 31.5284988,56.2840976 27.9580359,56.2840976 Z M46.2564893,59.8292332 L46.2564893,41.8980402 L41.4787476,41.8980402 L41.4787476,59.8292332 L46.2564893,59.8292332 Z M56.2837984,59.8292332 C62.3972529,59.8292332 66.89244,57.4914988 66.89244,50.7865685 C66.89244,43.8504337 62.5256868,41.8980402 56.2837984,41.8980402 L49.7593554,41.8980402 L49.7593554,59.8292332 L56.2837984,59.8292332 Z M56.3865455,56.2840976 L54.5370971,56.2840976 L54.5370971,45.4431757 L56.3865455,45.4431757 C59.8799481,45.4431757 61.9605775,47.2928117 61.9605775,50.8636367 C61.9605775,54.4344616 59.9570084,56.2840976 56.3865455,56.2840976 Z" fill="black" fill-rule="nonzero" transform="translate(34.166126, 50.863637) rotate(-90.000000) translate(-34.166126, -50.863637) "></path>
        </mask>
    </defs>
    <g id="VDID-Colors" stroke="none" stroke-width="1" fill="none" fill-rule="evenodd">
        <g id="VDID_Logo_neg">
            <rect id="Rectangle" fill="none" x="0" y="0" width="200" height="200"></rect>
            <g id="Group-Copy-5">
                <rect id="Combined-Shape" fill="#FFFFFF" x="0" y="0" width="100.043262" height="100.053407" mask="url(#vdidTextMask)"></rect>
                <path d="M105.807241,134.869288 L110.334537,121.420894 L107.656689,121.420894 L104.246769,131.979232 L104.208239,131.979232 L100.759788,121.420894 L97.8700249,121.420894 L102.493646,134.869288 L105.807241,134.869288 Z M119.387438,134.869288 L119.387438,132.749914 L114.108804,132.749914 L114.108804,128.973574 L118.905811,128.973574 L118.905811,126.854199 L114.108804,126.854199 L114.108804,123.540268 L119.348908,123.540268 L119.348908,121.420894 L111.411692,121.420894 L111.411692,134.869288 L119.387438,134.869288 Z M123.913043,134.869288 L123.913043,129.281846 L124.779972,129.281846 C125.916613,129.281846 126.263384,129.667187 126.648686,130.669073 L128.266953,134.869288 L131.272307,134.869288 L129.114617,129.609386 C128.844906,129.012108 128.421074,128.27996 127.689001,128.222159 L127.689001,128.183625 C129.403593,127.952421 130.463173,126.642262 130.463173,125.062364 C130.463173,121.591545 127.489764,121.426693 124.751285,121.420851 L121.215931,121.420851 L121.215931,134.869288 L123.913043,134.869288 Z M124.870624,127.16228 L123.913043,127.162472 L123.913043,123.540268 L124.799238,123.540268 C126.147794,123.540268 127.65047,123.675137 127.65047,125.293569 C127.65047,126.939869 126.182398,127.155118 124.870624,127.16228 L124.870624,127.16228 Z M141.982006,130.977346 C141.982006,129.32038 140.729775,128.08729 138.899592,127.913886 L138.899592,127.875352 C140.498594,127.586347 141.577439,126.468858 141.577439,124.869694 C141.577439,121.921837 138.976652,121.420894 137.242794,121.420894 L132.542113,121.420894 L132.542113,134.869288 L137.242794,134.869288 C138.938122,134.869288 141.982006,134.368345 141.982006,130.977346 Z M136.404495,126.853904 L135.239225,126.854199 L135.239225,123.540268 L136.27954,123.540268 L136.417015,123.540811 C137.611949,123.550813 138.880327,123.713671 138.880327,125.216501 C138.880327,126.576527 137.528586,126.84394 136.404495,126.853904 L136.404495,126.853904 Z M136.580555,132.749591 L135.239225,132.749914 L135.239225,128.857971 L136.510721,128.857971 C137.859277,128.857971 139.284893,129.12771 139.284893,130.881011 C139.284893,132.412741 137.818798,132.738067 136.580555,132.749591 L136.580555,132.749591 Z M145.043465,134.869288 L146.218635,131.786562 L151.670655,131.786562 L152.82656,134.869288 L155.812649,134.869288 L150.534015,121.420894 L147.490131,121.420894 L142.250027,134.869288 L145.043465,134.869288 Z M150.919316,129.667187 L146.989239,129.667187 L148.935012,124.118279 L148.973543,124.118279 L150.919316,129.667187 Z M159.317205,134.869288 L159.317205,124.811893 L159.355735,124.811893 L164.499513,134.869288 L167.793843,134.869288 L167.793843,121.420894 L165.212322,121.420894 L165.212322,131.478289 L165.173791,131.478289 L160.049278,121.420894 L156.735683,121.420894 L156.735683,134.869288 L159.317205,134.869288 Z M173.783596,134.869288 C177.906324,134.869288 181.547426,133.482061 181.547426,128.145091 C181.547426,122.808121 177.906324,121.420894 173.783596,121.420894 L170.103964,121.420894 L170.103964,134.869288 L173.783596,134.869288 Z M174.303753,132.749914 L172.801076,132.749914 L172.801076,123.540268 L174.303753,123.540268 C176.557768,123.540268 178.734723,125.216501 178.734723,128.145091 C178.734723,131.073681 176.557768,132.749914 174.303753,132.749914 Z M102.917478,156.502457 C107.040207,156.502457 110.681308,155.11523 110.681308,149.77826 C110.681308,144.44129 107.040207,143.054063 102.917478,143.054063 L99.2378461,143.054063 L99.2378461,156.502457 L102.917478,156.502457 Z M103.437635,154.383083 L101.934958,154.383083 L101.934958,145.173437 L103.437635,145.173437 C105.69165,145.173437 107.868605,146.84967 107.868605,149.77826 C107.868605,152.70685 105.69165,154.383083 103.437635,154.383083 Z M120.447018,156.502457 L120.447018,154.383083 L115.168384,154.383083 L115.168384,150.606743 L119.96539,150.606743 L119.96539,148.487368 L115.168384,148.487368 L115.168384,145.173437 L120.408487,145.173437 L120.408487,143.054063 L112.471271,143.054063 L112.471271,156.502457 L120.447018,156.502457 Z M127.900917,156.733662 C131.349367,156.733662 133.391467,155.2501 133.391467,151.647163 L133.391467,143.054063 L130.694354,143.054063 L130.694354,150.81868 C130.694354,153.111458 129.962281,154.614287 127.900917,154.614287 C125.839552,154.614287 125.107479,153.111458 125.107479,150.81868 L125.107479,143.054063 L122.410367,143.054063 L122.410367,151.647163 C122.410367,155.2501 124.452466,156.733662 127.900917,156.733662 Z M140.883896,156.502457 L140.883896,145.173437 L144.736913,145.173437 L144.736913,143.054063 L134.333766,143.054063 L134.333766,145.173437 L138.186783,145.173437 L138.186783,156.502457 L140.883896,156.502457 Z M148.992808,156.733662 C151.709185,156.733662 154.040261,155.616173 154.040261,152.668316 C154.040261,148.159829 148.145144,149.142448 148.145144,146.811136 C148.145144,145.346841 149.339579,144.942233 150.264303,144.942233 C151.208293,144.942233 152.152282,145.15417 152.999946,145.520244 L153.250392,143.304534 C152.267873,142.976994 151.189028,142.822858 150.033122,142.822858 C147.663517,142.822858 145.332441,143.921079 145.332441,146.926738 C145.332441,151.377424 151.227558,150.317737 151.227558,152.880254 C151.227558,154.094077 149.859737,154.614287 148.838687,154.614287 C147.779107,154.614287 146.719527,154.286748 145.794803,153.785805 L145.544357,156.213452 C146.873648,156.540991 147.528661,156.733662 148.992808,156.733662 Z M162.534474,156.733662 C163.555524,156.733662 164.615104,156.540991 165.597623,156.309787 L165.482033,154.055543 C164.846285,154.383083 163.594054,154.614287 162.534474,154.614287 C159.663976,154.614287 157.968649,152.552714 157.968649,149.816794 C157.968649,147.061607 159.702506,144.942233 162.476679,144.942233 C163.439933,144.942233 164.364658,145.077102 165.385707,145.655113 L165.578358,143.381602 C164.595839,142.996262 163.420668,142.822858 162.534474,142.822858 C157.968649,142.822858 155.155946,145.404642 155.155946,150.009465 C155.155946,154.556486 158.180565,156.733662 162.534474,156.733662 Z M169.603072,156.502457 L169.603072,150.606743 L174.997296,150.606743 L174.997296,156.502457 L177.694408,156.502457 L177.694408,143.054063 L174.997296,143.054063 L174.997296,148.487368 L169.603072,148.487368 L169.603072,143.054063 L166.905959,143.054063 L166.905959,156.502457 L169.603072,156.502457 Z M188.115131,156.502457 L188.115131,154.383083 L182.836497,154.383083 L182.836497,150.606743 L187.633504,150.606743 L187.633504,148.487368 L182.836497,148.487368 L182.836497,145.173437 L188.076601,145.173437 L188.076601,143.054063 L180.139385,143.054063 L180.139385,156.502457 L188.115131,156.502457 Z M192.640737,156.502457 L192.640737,150.915015 L193.507665,150.915015 C194.644306,150.915015 194.991077,151.300356 195.376379,152.302242 L196.994646,156.502457 L200,156.502457 L197.84231,151.242555 C197.572599,150.645277 197.148767,149.913129 196.416694,149.855328 L196.416694,149.816794 C198.131287,149.58559 199.190866,148.275431 199.190866,146.695533 C199.190866,143.224714 196.217457,143.059862 193.478978,143.054021 L189.943624,143.054021 L189.943624,156.502457 L192.640737,156.502457 Z M193.598317,148.795449 L192.640737,148.795641 L192.640737,145.173437 L193.526931,145.173437 C194.875487,145.173437 196.378164,145.308306 196.378164,146.926738 C196.378164,148.573038 194.910091,148.788287 193.598317,148.795449 Z M101.703777,178.135626 L101.703777,164.687232 L99.006665,164.687232 L99.006665,178.135626 L101.703777,178.135626 Z M106.364239,178.135626 L106.364239,168.078231 L106.402769,168.078231 L111.546547,178.135626 L114.840877,178.135626 L114.840877,164.687232 L112.259355,164.687232 L112.259355,174.744627 L112.220825,174.744627 L107.096312,164.687232 L103.782717,164.687232 L103.782717,178.135626 L106.364239,178.135626 Z M120.830629,178.135626 C124.953358,178.135626 128.59446,176.748399 128.59446,171.411429 C128.59446,166.074459 124.953358,164.687232 120.830629,164.687232 L117.150998,164.687232 L117.150998,178.135626 L120.830629,178.135626 Z M121.350787,176.016252 L119.84811,176.016252 L119.84811,166.806606 L121.350787,166.806606 C123.604802,166.806606 125.781757,168.482839 125.781757,171.411429 C125.781757,174.340019 123.604802,176.016252 121.350787,176.016252 Z M135.778648,178.366831 C139.227098,178.366831 141.269197,176.883269 141.269197,173.280332 L141.269197,164.687232 L138.572085,164.687232 L138.572085,172.451849 C138.572085,174.744627 137.840012,176.247456 135.778648,176.247456 C133.717283,176.247456 132.98521,174.744627 132.98521,172.451849 L132.98521,164.687232 L130.288098,164.687232 L130.288098,173.280332 C130.288098,176.883269 132.330197,178.366831 135.778648,178.366831 Z M146.835118,178.366831 C149.551495,178.366831 151.882571,177.249343 151.882571,174.301485 C151.882571,169.792998 145.987454,170.775617 145.987454,168.444305 C145.987454,166.98001 147.181889,166.575402 148.106614,166.575402 C149.050603,166.575402 149.994592,166.787339 150.842256,167.153413 L151.092702,164.937703 C150.110183,164.610164 149.031338,164.456027 147.875433,164.456027 C145.505827,164.456027 143.174751,165.554249 143.174751,168.559907 C143.174751,173.010593 149.069868,171.950906 149.069868,174.513423 C149.069868,175.727246 147.702047,176.247456 146.680997,176.247456 C145.621417,176.247456 144.561838,175.919917 143.637113,175.418974 L143.386667,177.846621 C144.715958,178.174161 145.370971,178.366831 146.835118,178.366831 Z M158.797047,178.135626 L158.797047,166.806606 L162.650065,166.806606 L162.650065,164.687232 L152.246918,164.687232 L152.246918,166.806606 L156.099935,166.806606 L156.099935,178.135626 L158.797047,178.135626 Z M166.154621,178.135626 L166.154621,172.548185 L167.02155,172.548185 C168.15819,172.548185 168.504962,172.933525 168.890263,173.935411 L170.508531,178.135626 L173.513884,178.135626 L171.356195,172.875724 C171.086483,172.278446 170.662651,171.546298 169.930578,171.488497 L169.930578,171.449963 C171.645171,171.218759 172.704751,169.9086 172.704751,168.328702 C172.704751,164.857883 169.731342,164.693031 166.992863,164.68719 L163.457509,164.68719 L163.457509,178.135626 L166.154621,178.135626 Z M167.112202,170.428618 L166.154621,170.42881 L166.154621,166.806606 L167.040815,166.806606 C168.389371,166.806606 169.892048,166.941476 169.892048,168.559907 C169.892048,170.206207 168.423976,170.421456 167.112202,170.428618 L167.112202,170.428618 Z M177.249621,178.135626 L177.249621,164.687232 L174.552509,164.687232 L174.552509,178.135626 L177.249621,178.135626 Z M187.439163,178.135626 L187.439163,176.016252 L182.160529,176.016252 L182.160529,172.239912 L186.957536,172.239912 L186.957536,170.120537 L182.160529,170.120537 L182.160529,166.806606 L187.400633,166.806606 L187.400633,164.687232 L179.463417,164.687232 L179.463417,178.135626 L187.439163,178.135626 Z M102.917478,199.768796 C107.040207,199.768796 110.681308,198.381569 110.681308,193.044598 C110.681308,187.707628 107.040207,186.320401 102.917478,186.320401 L99.2378461,186.320401 L99.2378461,199.768796 L102.917478,199.768796 Z M103.437635,197.649421 L101.934958,197.649421 L101.934958,188.439775 L103.437635,188.439775 C105.69165,188.439775 107.868605,190.116008 107.868605,193.044598 C107.868605,195.973188 105.69165,197.649421 103.437635,197.649421 Z M120.447018,199.768796 L120.447018,197.649421 L115.168384,197.649421 L115.168384,193.873081 L119.96539,193.873081 L119.96539,191.753706 L115.168384,191.753706 L115.168384,188.439775 L120.408487,188.439775 L120.408487,186.320401 L112.471271,186.320401 L112.471271,199.768796 L120.447018,199.768796 Z M125.723962,200 C128.440339,200 130.771415,198.882512 130.771415,195.934654 C130.771415,191.426167 124.876298,192.408786 124.876298,190.077474 C124.876298,188.613179 126.070733,188.208571 126.995457,188.208571 C127.939447,188.208571 128.883436,188.420508 129.7311,188.786582 L129.981546,186.570872 C128.999027,186.243333 127.920182,186.089196 126.764276,186.089196 C124.394671,186.089196 122.063595,187.187418 122.063595,190.193076 C122.063595,194.643763 127.958712,193.584075 127.958712,196.146592 C127.958712,197.360415 126.590891,197.880625 125.569841,197.880625 C124.510261,197.880625 123.450681,197.553086 122.525957,197.052143 L122.275511,199.47979 C123.604802,199.80733 124.259815,200 125.723962,200 Z M135.008044,199.768796 L135.008044,186.320401 L132.310932,186.320401 L132.310932,199.768796 L135.008044,199.768796 Z M143.945355,200 C145.390236,200 146.873648,199.691727 148.299265,199.306387 L148.299265,192.061979 L142.86651,192.061979 L142.86651,194.181354 L145.717743,194.181354 L145.717743,197.687955 C145.255381,197.803557 144.677428,197.880625 143.945355,197.880625 C141.074857,197.880625 139.379529,195.819052 139.379529,193.083132 C139.379529,190.327945 141.113387,188.208571 144.253596,188.208571 C145.332441,188.208571 146.680997,188.439775 147.721312,188.921451 L147.894698,186.64794 C146.738792,186.301134 145.505827,186.089196 143.945355,186.089196 C139.379529,186.089196 136.566826,188.67098 136.566826,193.275803 C136.566826,197.822824 139.591445,200 143.945355,200 Z M152.901931,199.768796 L152.901931,189.7114 L152.940461,189.7114 L158.084239,199.768796 L161.378569,199.768796 L161.378569,186.320401 L158.797047,186.320401 L158.797047,196.377796 L158.758517,196.377796 L153.634004,186.320401 L150.320409,186.320401 L150.320409,199.768796 L152.901931,199.768796 Z M171.664436,199.768796 L171.664436,197.649421 L166.385802,197.649421 L166.385802,193.873081 L171.182809,193.873081 L171.182809,191.753706 L166.385802,191.753706 L166.385802,188.439775 L171.625906,188.439775 L171.625906,186.320401 L163.68869,186.320401 L163.68869,199.768796 L171.664436,199.768796 Z M176.190042,199.768796 L176.190042,194.181354 L177.056971,194.181354 C178.193611,194.181354 178.540382,194.566694 178.925684,195.568581 L180.543951,199.768796 L183.549305,199.768796 L181.391615,194.508893 C181.121904,193.911615 180.698072,193.179467 179.965999,193.121666 L179.965999,193.083132 C181.680592,192.851928 182.740171,191.541769 182.740171,189.961872 C182.740171,186.491052 179.766762,186.326201 177.028284,186.320359 L173.492929,186.320359 L173.492929,199.768796 L176.190042,199.768796 Z M177.147622,192.061787 L176.190042,192.061979 L176.190042,188.439775 L177.076236,188.439775 C178.424792,188.439775 179.927469,188.574645 179.927469,190.193076 C179.927469,191.839376 178.459396,192.054625 177.147622,192.061787 Z" id="VERBANDDEUTSCHERINDUSTRIEDESIGNER" fill="#FFFFFF" fill-rule="nonzero"></path>
            </g>
        </g>
    </g>
</svg>